<?xml version="1.0" encoding="UTF-8"?>
<svg xmlns="http://www.w3.org/2000/svg" xmlns:xlink="http://www.w3.org/1999/xlink" width="60px" height="60px" viewBox="0 0 60 60" version="1.1">
<defs>
<clipPath id="clip1">
  <path d="M 0 2 L 13 2 L 13 23 L 0 23 Z M 0 2 "/>
</clipPath>
<clipPath id="clip2">
  <path d="M 1.4375 2.945312 L 10.804688 2.945312 C 11.601562 2.945312 12.242188 5.789062 12.242188 9.296875 L 12.242188 50.703125 C 12.242188 54.210938 11.601562 57.054688 10.804688 57.054688 L 1.4375 57.054688 C 0.644531 57.054688 0 54.210938 0 50.703125 L 0 9.296875 C 0 5.789062 0.644531 2.945312 1.4375 2.945312 Z M 1.4375 2.945312 "/>
</clipPath>
<linearGradient id="linear0" gradientUnits="userSpaceOnUse" x1="-12.4898" y1="7.00624" x2="35.761" y2="6.54083" gradientTransform="matrix(0.437956,0,0,1.935484,0,0)">
<stop offset="0" style="stop-color:rgb(9.411765%,58.039216%,29.019608%);stop-opacity:1;"/>
<stop offset="1" style="stop-color:rgb(52.54902%,82.745098%,73.333333%);stop-opacity:1;"/>
</linearGradient>
<clipPath id="clip3">
  <path d="M 7 2 L 13 2 L 13 58 L 7 58 Z M 7 2 "/>
</clipPath>
<clipPath id="clip4">
  <path d="M 1.4375 2.945312 L 10.804688 2.945312 C 11.601562 2.945312 12.242188 5.789062 12.242188 9.296875 L 12.242188 50.703125 C 12.242188 54.210938 11.601562 57.054688 10.804688 57.054688 L 1.4375 57.054688 C 0.644531 57.054688 0 54.210938 0 50.703125 L 0 9.296875 C 0 5.789062 0.644531 2.945312 1.4375 2.945312 Z M 1.4375 2.945312 "/>
</clipPath>
<linearGradient id="linear1" gradientUnits="userSpaceOnUse" x1="22.9369" y1="28.6387" x2="22.9369" y2="13.1515" gradientTransform="matrix(0.437956,0,0,1.935484,0,0)">
<stop offset="0" style="stop-color:rgb(11.764706%,59.215686%,36.470588%);stop-opacity:1;"/>
<stop offset="1" style="stop-color:rgb(52.54902%,82.745098%,73.333333%);stop-opacity:1;"/>
</linearGradient>
<clipPath id="clip5">
  <path d="M 0 2 L 13 2 L 13 58 L 0 58 Z M 0 2 "/>
</clipPath>
<clipPath id="clip6">
  <path d="M 1.4375 2.945312 L 10.804688 2.945312 C 11.601562 2.945312 12.242188 5.789062 12.242188 9.296875 L 12.242188 50.703125 C 12.242188 54.210938 11.601562 57.054688 10.804688 57.054688 L 1.4375 57.054688 C 0.644531 57.054688 0 54.210938 0 50.703125 L 0 9.296875 C 0 5.789062 0.644531 2.945312 1.4375 2.945312 Z M 1.4375 2.945312 "/>
</clipPath>
</defs>
<g id="surface1">
<g clip-path="url(#clip1)" clip-rule="nonzero">
<g clip-path="url(#clip2)" clip-rule="nonzero">
<path style=" stroke:none;fill-rule:nonzero;fill:url(#linear0);" d="M 0 2.945312 L 12.242188 2.945312 L 7.796875 22.371094 L 0 22.371094 Z M 0 2.945312 "/>
</g>
</g>
<g clip-path="url(#clip3)" clip-rule="nonzero">
<g clip-path="url(#clip4)" clip-rule="nonzero">
<path style=" stroke:none;fill-rule:nonzero;fill:url(#linear1);" d="M 12.242188 2.945312 L 12.242188 57.054688 L 7.847656 57.054688 L 7.847656 22.132812 Z M 12.242188 2.945312 "/>
</g>
</g>
<g clip-path="url(#clip5)" clip-rule="nonzero">
<g clip-path="url(#clip6)" clip-rule="nonzero">
<path style=" stroke:none;fill-rule:nonzero;fill:rgb(11.764706%,54.901961%,31.764706%);fill-opacity:1;" d="M 0 2.945312 L 12.242188 57.054688 L 0 57.054688 Z M 0 2.945312 "/>
</g>
</g>
<path style=" stroke:none;fill-rule:nonzero;fill:rgb(100%,100%,100%);fill-opacity:1;" d="M 19.476562 16.132812 L 19.476562 18.488281 L 17.695312 18.488281 L 17.695312 44.515625 L 17.054688 44.515625 L 17.054688 18.488281 L 15.261719 18.488281 L 15.261719 16.132812 Z M 23.910156 44.515625 L 22.320312 32.660156 L 21.136719 32.660156 L 21.136719 44.515625 L 20.492188 44.515625 L 20.492188 16.132812 L 22.421875 16.132812 C 23.140625 16.132812 23.683594 16.890625 24.050781 18.410156 C 24.421875 19.925781 24.609375 21.914062 24.609375 24.378906 C 24.609375 26.433594 24.476562 28.195312 24.207031 29.65625 C 23.941406 31.089844 23.550781 32.023438 23.03125 32.457031 L 24.683594 44.515625 Z M 21.136719 30.34375 L 22.433594 30.34375 C 22.933594 30.34375 23.3125 29.804688 23.5625 28.722656 C 23.820312 27.640625 23.949219 26.191406 23.949219 24.378906 C 23.949219 22.507812 23.824219 21.074219 23.582031 20.074219 C 23.335938 19.042969 22.949219 18.53125 22.421875 18.53125 L 21.136719 18.53125 Z M 29.605469 37.777344 L 26.683594 37.777344 L 26.125 44.515625 L 25.445312 44.515625 L 27.789062 16.5 L 28.515625 16.5 L 30.847656 44.515625 L 30.167969 44.515625 Z M 29.414062 35.421875 L 28.144531 20.074219 L 26.878906 35.421875 Z M 33.78125 16.132812 C 34.492188 16.132812 35.101562 16.703125 35.609375 17.839844 C 36.117188 18.976562 36.507812 20.613281 36.777344 22.753906 C 37.046875 24.890625 37.179688 27.4375 37.179688 30.386719 C 37.179688 33.308594 37.046875 35.839844 36.777344 37.980469 C 36.507812 40.089844 36.117188 41.714844 35.609375 42.851562 C 35.101562 43.960938 34.492188 44.515625 33.78125 44.515625 L 31.878906 44.515625 L 31.878906 16.132812 Z M 33.78125 42.160156 C 34.675781 42.160156 35.355469 41.132812 35.820312 39.074219 C 36.292969 36.992188 36.527344 34.09375 36.527344 30.386719 C 36.527344 26.652344 36.292969 23.742188 35.820312 21.65625 C 35.355469 19.546875 34.675781 18.488281 33.78125 18.488281 L 32.523438 18.488281 L 32.523438 42.160156 Z M 39.007812 18.449219 L 39.007812 29.046875 L 41.445312 29.046875 L 41.445312 31.402344 L 39.007812 31.402344 L 39.007812 42.160156 L 41.71875 42.160156 L 41.71875 44.515625 L 38.367188 44.515625 L 38.367188 16.09375 L 41.71875 16.09375 L 41.71875 18.449219 Z M 46.625 16.175781 L 46.625 36.070312 C 46.625 38.832031 46.445312 40.984375 46.082031 42.527344 C 45.722656 44.042969 45.238281 44.800781 44.632812 44.800781 C 44.019531 44.800781 43.523438 44.015625 43.144531 42.445312 C 42.769531 40.875 42.582031 38.683594 42.582031 35.867188 L 43.871094 35.867188 C 43.875 37.085938 43.941406 38.035156 44.0625 38.710938 C 44.191406 39.386719 44.375 39.726562 44.613281 39.726562 C 44.847656 39.726562 45.023438 39.398438 45.144531 38.75 C 45.269531 38.101562 45.328125 37.207031 45.328125 36.070312 L 45.328125 16.175781 Z M 49.410156 16.175781 L 49.410156 44.515625 L 48.125 44.515625 L 48.125 16.175781 Z M 56.167969 44.515625 L 54.882812 44.515625 L 51.96875 25.066406 L 51.96875 44.515625 L 50.683594 44.515625 L 50.683594 16.132812 L 51.96875 16.132812 L 54.882812 35.625 L 54.882812 16.132812 L 56.167969 16.132812 Z M 58.726562 16.175781 L 58.726562 44.515625 L 57.4375 44.515625 L 57.4375 16.175781 Z M 58.726562 16.175781 "/>
</g>
</svg>
